<svg xmlns="http://www.w3.org/2000/svg" width="1024" height="1024" viewBox="0 0 1024 1024">
<g>
<path d="M 387.00 472.07 L 387.00 673.00 L 361.05 673.00 L 360.77 462.25 L 360.49 251.50 L 358.25 243.50 C355.36,233.17 349.03,220.34 343.43,213.46 C340.99,210.47 339.00,207.79 339.00,207.50 C339.00,206.50 346.03,209.91 351.60,213.61 C368.95,225.13 381.13,243.22 385.49,263.97 C386.81,270.21 387.00,296.92 387.00,472.07 ZM 577.79 818.48 C571.09,819.80 552.36,819.98 434.79,819.86 C360.38,819.79 298.38,819.55 297.00,819.33 C284.14,817.31 272.28,812.70 261.45,805.51 C252.45,799.54 253.11,798.95 265.90,801.53 C272.55,802.87 290.90,803.02 412.00,802.78 L 550.50 802.50 L 558.50 799.67 C575.30,793.74 587.94,782.94 595.47,768.07 C605.99,747.28 604.41,721.93 591.31,701.63 C586.95,694.86 586.92,694.76 589.53,695.42 C599.27,697.86 615.07,711.89 621.19,723.54 C628.65,737.73 631.05,755.68 627.51,770.70 C621.96,794.21 601.62,813.76 577.79,818.48 ZM 782.18 817.13 C774.52,819.37 760.69,820.30 753.76,819.03 C741.98,816.88 731.55,812.16 722.17,804.72 C716.79,800.46 708.00,790.39 708.00,788.51 C708.00,788.19 710.59,789.66 713.75,791.78 C721.97,797.28 726.66,799.45 733.50,800.90 C736.80,801.59 741.39,802.58 743.69,803.08 C746.00,803.59 749.82,803.97 752.19,803.94 C757.10,803.86 767.50,801.83 768.60,800.73 C769.00,800.33 770.23,800.00 771.32,800.00 C774.70,800.00 784.16,795.04 791.73,789.30 C801.12,782.18 809.10,771.61 812.84,761.33 C819.35,743.47 819.28,729.19 812.62,711.50 L 809.98 704.50 L 814.52 709.50 C819.48,714.95 827.12,729.70 828.90,737.24 C832.61,752.93 830.80,767.83 823.36,782.96 C815.19,799.56 800.44,811.80 782.18,817.13 Z" fill="rgb(114,149,123)"/>
<path d="M 0.00 0.00 L 1024.00 0.00 L 910.75 0.12 C809.65,0.23 799.16,0.38 813.00,1.55 C905.14,9.33 966.72,46.05 999.06,112.50 C1010.76,136.54 1019.43,166.91 1022.56,194.75 C1022.94,198.19 1023.43,201.00 1023.63,201.00 C1023.83,201.00 1024.00,155.77 1024.00,100.50 L 1024.00 1024.00 L 0.00 1024.00 L 201.50 1023.82 L 186.99 1021.49 C110.94,1009.25 59.52,975.02 29.68,916.78 C13.83,885.85 5.20,851.29 2.03,806.00 C0.64,786.13 0.64,238.63 2.03,219.50 C8.54,129.85 40.48,69.38 99.85,34.30 C131.45,15.62 169.40,5.05 219.00,1.11 C225.42,0.60 184.95,0.22 114.75,0.14 ZM 387.00 472.07 C387.00,296.92 386.81,270.21 385.49,263.97 C381.13,243.22 368.95,225.13 351.60,213.61 C346.03,209.91 339.00,206.50 339.00,207.50 C339.00,207.79 340.99,210.47 343.43,213.46 C344.06,214.24 344.71,215.11 345.36,216.03 C343.44,213.54 341.07,211.02 337.52,207.50 C320.51,190.63 302.98,183.44 279.50,183.69 C267.73,183.82 258.68,185.75 247.82,190.46 C228.65,198.76 213.22,214.90 206.09,234.06 C205.54,235.56 205.04,236.73 204.60,237.93 C201.01,247.64 201.01,258.67 201.02,454.21 C201.02,466.57 201.02,479.67 201.01,493.56 C201.00,733.47 201.01,734.66 203.05,742.56 C210.71,772.18 232.55,793.50 262.65,800.90 C253.07,799.11 253.29,800.09 261.45,805.51 C272.28,812.70 284.14,817.31 297.00,819.33 C298.38,819.55 360.38,819.79 434.79,819.86 C552.36,819.98 571.09,819.80 577.79,818.48 C601.62,813.76 621.96,794.21 627.51,770.70 C631.05,755.68 628.65,737.73 621.19,723.54 C615.07,711.89 599.27,697.86 589.53,695.42 C586.92,694.76 586.95,694.86 591.31,701.63 C592.83,703.98 594.20,706.41 595.41,708.88 C587.96,693.95 574.94,682.61 558.12,676.59 L 549.50 673.50 L 455.27 673.22 L 380.80 673.00 L 387.00 673.00 ZM 782.18 817.13 C800.44,811.80 815.19,799.56 823.36,782.96 C830.80,767.83 832.61,752.93 828.90,737.24 C827.12,729.70 819.48,714.95 814.52,709.50 L 809.98 704.50 L 812.62 711.50 C814.17,715.61 815.36,719.54 816.20,723.37 C813.88,714.01 809.54,704.13 804.39,697.26 C793.46,682.67 778.70,674.09 759.11,670.96 C738.41,667.64 711.75,678.67 699.01,695.82 C694.20,702.29 689.13,711.85 687.77,717.00 C683.50,733.16 683.35,739.10 686.89,753.00 C689.49,763.24 691.35,767.25 697.52,776.00 C703.40,784.34 705.04,785.94 713.59,791.67 C716.97,793.94 719.78,795.65 722.35,796.98 C719.81,795.67 717.06,794.00 713.75,791.78 C710.59,789.66 708.00,788.19 708.00,788.51 C708.00,790.39 716.79,800.46 722.17,804.72 C731.55,812.16 741.98,816.88 753.76,819.03 C760.69,820.30 774.52,819.37 782.18,817.13 ZM 839.50 1021.54 L 825.50 1023.82 L 924.75 1023.91 L 1024.00 1024.00 L 1023.89 924.25 C1023.80,835.20 1023.64,825.52 1022.40,834.00 C1014.00,891.77 994.11,934.56 960.77,966.56 C947.03,979.76 934.76,988.32 915.96,997.83 C893.03,1009.44 869.94,1016.60 839.50,1021.54 ZM 267.58 801.80 C276.78,802.67 306.94,802.82 411.00,802.68 L 550.50 802.50 L 412.00 802.78 C299.75,803.01 275.78,802.89 267.58,801.80 ZM 744.19 803.19 C748.22,803.80 753.87,803.76 758.75,803.26 C756.32,803.64 753.92,803.91 752.19,803.94 C749.99,803.97 746.52,803.64 744.19,803.19 ZM 801.96 779.56 C798.88,783.19 795.41,786.51 791.73,789.30 C790.16,790.49 788.51,791.65 786.85,792.74 C792.26,788.97 797.83,784.20 801.96,779.56 ZM 814.91 755.01 C814.32,757.07 813.63,759.18 812.84,761.33 C811.38,765.35 809.26,769.42 806.67,773.31 C810.04,768.02 812.90,761.57 814.91,755.01 ZM 601.38 727.31 C603.65,740.36 602.06,753.83 596.51,765.92 C601.84,754.16 603.64,740.61 601.38,727.31 ZM 583.04 784.90 C580.32,787.49 577.36,789.85 574.15,791.97 C575.62,790.94 577.20,789.75 579.00,788.35 C580.40,787.26 581.75,786.10 583.04,784.90 ZM 352.89 229.35 C354.81,233.45 356.49,237.72 357.72,241.70 C356.60,238.20 354.73,233.44 352.89,229.35 ZM 736.56 801.55 C735.49,801.32 734.44,801.10 733.50,800.90 C733.19,800.83 732.88,800.76 732.58,800.69 C732.72,800.72 732.86,800.75 733.00,800.78 C734.08,801.01 735.31,801.28 736.56,801.55 Z" fill="rgb(140,182,153)"/>
<path d="M 744.19 803.19 C744.02,803.15 743.85,803.12 743.69,803.08 C742.04,802.72 739.23,802.12 736.56,801.55 C735.31,801.28 734.08,801.01 733.00,800.78 C732.86,800.75 732.72,800.72 732.58,800.69 C728.91,799.86 725.82,798.77 722.35,796.98 L 722.34 796.98 C719.77,795.65 716.97,793.93 713.59,791.67 C705.04,785.94 703.40,784.34 697.52,776.00 C691.35,767.25 689.49,763.24 686.89,753.00 C683.35,739.10 683.50,733.16 687.77,717.00 C689.13,711.85 694.20,702.29 699.01,695.82 C711.75,678.67 738.41,667.64 759.11,670.96 C778.70,674.09 793.46,682.67 804.39,697.26 C809.54,704.13 813.88,714.01 816.20,723.37 C818.52,734.04 818.09,743.95 814.91,755.01 L 814.91 755.01 C812.90,761.57 810.04,768.03 806.67,773.31 C805.24,775.46 803.65,777.56 801.96,779.56 C797.83,784.20 792.26,788.97 786.85,792.74 C780.50,796.89 774.00,800.00 771.32,800.00 C770.23,800.00 769.00,800.33 768.60,800.73 C767.89,801.45 763.26,802.55 758.75,803.26 C753.87,803.76 748.22,803.80 744.19,803.19 Z" fill="rgb(225,98,79)"/>
<path d="M 0.00 512.00 L 0.00 0.00 L 114.75 0.14 C184.95,0.22 225.42,0.60 219.00,1.11 C169.40,5.05 131.45,15.62 99.85,34.30 C40.48,69.38 8.54,129.85 2.03,219.50 C0.64,238.63 0.64,786.13 2.03,806.00 C5.20,851.29 13.83,885.85 29.68,916.78 C59.52,975.02 110.94,1009.25 186.99,1021.49 L 201.50 1023.82 L 100.75 1023.91 L 0.00 1024.00 L 0.00 512.00 ZM 839.50 1021.54 C869.94,1016.60 893.03,1009.44 915.96,997.83 C934.76,988.32 947.03,979.76 960.77,966.56 C994.11,934.56 1014.00,891.77 1022.40,834.00 C1023.64,825.52 1023.80,835.20 1023.89,924.25 L 1024.00 1024.00 L 924.75 1023.91 L 825.50 1023.82 L 839.50 1021.54 ZM 265.03 801.45 C233.70,794.61 210.91,772.96 203.05,742.56 C201.01,734.66 201.00,733.47 201.01,493.56 C201.03,233.05 200.73,248.49 206.09,234.06 C213.22,214.90 228.65,198.76 247.82,190.46 C258.68,185.75 267.73,183.82 279.50,183.69 C302.98,183.44 320.51,190.63 337.52,207.50 C345.15,215.07 347.34,218.01 351.31,226.00 C353.91,231.23 357.04,239.10 358.26,243.50 L 360.49 251.50 L 360.77 462.22 L 361.05 672.94 L 455.27 673.22 L 549.50 673.50 L 558.12 676.59 C577.43,683.50 591.73,697.42 598.34,715.74 C607.88,742.19 599.91,772.09 579.00,788.35 C571.05,794.53 567.48,796.51 558.50,799.67 L 550.50 802.50 L 411.00 802.68 C294.08,802.83 270.45,802.63 265.03,801.45 ZM 1022.56 194.75 C1019.43,166.91 1010.76,136.54 999.06,112.50 C966.72,46.05 905.14,9.33 813.00,1.55 C799.16,0.38 809.65,0.23 910.75,0.12 L 1024.00 0.00 L 1024.00 100.50 C1024.00,155.77 1023.83,201.00 1023.63,201.00 C1023.43,201.00 1022.94,198.19 1022.56,194.75 Z" fill="rgb(247,245,238)"/>
</g>
</svg>